<mxfile host="65bd71144e">
    <diagram id="8NzFz_BxW1oDdokiiOlx" name="PÃ¡gina-1">
        <mxGraphModel dx="1226" dy="679" grid="1" gridSize="10" guides="1" tooltips="1" connect="1" arrows="1" fold="1" page="1" pageScale="1" pageWidth="2336" pageHeight="1654" background="#0F0F0F" math="0" shadow="0">
            <root>
                <mxCell id="0"/>
                <mxCell id="1" parent="0"/>
                <mxCell id="2" value="" style="sketch=0;outlineConnect=0;fontColor=#232F3E;gradientColor=none;fillColor=#56AA02;strokeColor=none;dashed=0;verticalLabelPosition=bottom;verticalAlign=top;align=center;html=1;fontSize=12;fontStyle=0;aspect=fixed;pointerEvents=1;shape=mxgraph.aws4.endpoint;" vertex="1" parent="1">
                    <mxGeometry x="110" y="120" width="50" height="50" as="geometry"/>
                </mxCell>
                <mxCell id="5" style="edgeStyle=none;html=1;exitX=0;exitY=0.5;exitDx=0;exitDy=0;endArrow=none;endFill=0;dashed=1;" edge="1" parent="1" source="4" target="2">
                    <mxGeometry relative="1" as="geometry">
                        <Array as="points">
                            <mxPoint x="180" y="45"/>
                            <mxPoint x="180" y="145"/>
                        </Array>
                    </mxGeometry>
                </mxCell>
                <mxCell id="7" style="edgeStyle=none;html=1;exitX=1;exitY=0.5;exitDx=0;exitDy=0;entryX=0;entryY=0.5;entryDx=0;entryDy=0;endArrow=classic;endFill=1;dashed=1;" edge="1" parent="1" source="4" target="6">
                    <mxGeometry relative="1" as="geometry"/>
                </mxCell>
                <mxCell id="4" value="/test/token" style="shape=process;whiteSpace=wrap;html=1;backgroundOutline=1;fillColor=#191919;strokeColor=#242424;" vertex="1" parent="1">
                    <mxGeometry x="200" y="32.5" width="120" height="25" as="geometry"/>
                </mxCell>
                <mxCell id="6" value="POST" style="rounded=1;whiteSpace=wrap;html=1;strokeColor=#2D7600;fillColor=#60a917;fontColor=#ffffff;" vertex="1" parent="1">
                    <mxGeometry x="360" y="30" width="50" height="30" as="geometry"/>
                </mxCell>
                <mxCell id="11" style="edgeStyle=none;html=1;exitX=0.5;exitY=1;exitDx=0;exitDy=0;endArrow=classic;endFill=1;" edge="1" parent="1" source="10" target="2">
                    <mxGeometry relative="1" as="geometry"/>
                </mxCell>
                <mxCell id="10" value="Request" style="text;html=1;strokeColor=none;fillColor=none;align=center;verticalAlign=middle;whiteSpace=wrap;rounded=0;" vertex="1" parent="1">
                    <mxGeometry x="105" y="30" width="60" height="30" as="geometry"/>
                </mxCell>
                <mxCell id="15" style="edgeStyle=none;html=1;exitX=0;exitY=0.5;exitDx=0;exitDy=0;endArrow=none;endFill=0;startArrow=classic;startFill=1;" edge="1" parent="1" source="14" target="2">
                    <mxGeometry relative="1" as="geometry">
                        <Array as="points">
                            <mxPoint x="135" y="265"/>
                        </Array>
                    </mxGeometry>
                </mxCell>
                <mxCell id="18" style="edgeStyle=none;html=1;exitX=0.5;exitY=1;exitDx=0;exitDy=0;entryX=0;entryY=0.5;entryDx=0;entryDy=0;startArrow=none;startFill=0;endArrow=classic;endFill=1;" edge="1" parent="1" source="14" target="17">
                    <mxGeometry relative="1" as="geometry">
                        <Array as="points">
                            <mxPoint x="250" y="395"/>
                        </Array>
                    </mxGeometry>
                </mxCell>
                <mxCell id="34" style="edgeStyle=none;html=1;exitX=0.75;exitY=0;exitDx=0;exitDy=0;entryX=0.5;entryY=0;entryDx=0;entryDy=0;fontColor=#2B2B2B;startArrow=none;startFill=0;endArrow=none;endFill=0;dashed=1;" edge="1" parent="1" source="14" target="33">
                    <mxGeometry relative="1" as="geometry">
                        <Array as="points">
                            <mxPoint x="280" y="240"/>
                            <mxPoint x="280" y="210"/>
                            <mxPoint x="385" y="210"/>
                        </Array>
                    </mxGeometry>
                </mxCell>
                <mxCell id="36" style="edgeStyle=none;html=1;exitX=0.75;exitY=0;exitDx=0;exitDy=0;entryX=0.5;entryY=0;entryDx=0;entryDy=0;dashed=1;fontColor=#2B2B2B;startArrow=none;startFill=0;endArrow=none;endFill=0;" edge="1" parent="1" source="14" target="35">
                    <mxGeometry relative="1" as="geometry">
                        <Array as="points">
                            <mxPoint x="280" y="210"/>
                            <mxPoint x="525" y="210"/>
                        </Array>
                    </mxGeometry>
                </mxCell>
                <mxCell id="39" style="edgeStyle=none;html=1;exitX=0.75;exitY=0;exitDx=0;exitDy=0;entryX=0.5;entryY=0;entryDx=0;entryDy=0;dashed=1;fontColor=#2B2B2B;startArrow=none;startFill=0;endArrow=none;endFill=0;" edge="1" parent="1" source="14" target="38">
                    <mxGeometry relative="1" as="geometry">
                        <Array as="points">
                            <mxPoint x="280" y="210"/>
                            <mxPoint x="665" y="210"/>
                        </Array>
                    </mxGeometry>
                </mxCell>
                <mxCell id="92" style="edgeStyle=none;html=1;exitX=0.25;exitY=1;exitDx=0;exitDy=0;entryX=0;entryY=0.5;entryDx=0;entryDy=0;fontSize=10;fontColor=#FFFFFF;startArrow=none;startFill=0;endArrow=classic;endFill=1;fillColor=#1ba1e2;strokeColor=#006EAF;" edge="1" parent="1" source="14" target="91">
                    <mxGeometry relative="1" as="geometry">
                        <Array as="points">
                            <mxPoint x="220" y="445"/>
                        </Array>
                    </mxGeometry>
                </mxCell>
                <mxCell id="14" value="@required_token" style="rounded=1;whiteSpace=wrap;html=1;fillStyle=auto;strokeColor=none;strokeWidth=1;fillColor=#242424;" vertex="1" parent="1">
                    <mxGeometry x="190" y="250" width="120" height="30" as="geometry"/>
                </mxCell>
                <mxCell id="51" style="edgeStyle=none;html=1;exitX=0.5;exitY=1;exitDx=0;exitDy=0;entryX=0;entryY=0.5;entryDx=0;entryDy=0;fontColor=#FFFFFF;startArrow=none;startFill=0;endArrow=classic;endFill=1;" edge="1" parent="1" source="17" target="50">
                    <mxGeometry relative="1" as="geometry">
                        <Array as="points">
                            <mxPoint x="480" y="435"/>
                        </Array>
                    </mxGeometry>
                </mxCell>
                <mxCell id="61" style="edgeStyle=none;html=1;exitX=0.5;exitY=1;exitDx=0;exitDy=0;entryX=0;entryY=0.5;entryDx=0;entryDy=0;fontSize=10;fontColor=#FFFFFF;startArrow=none;startFill=0;endArrow=classic;endFill=1;" edge="1" parent="1" source="17" target="60">
                    <mxGeometry relative="1" as="geometry">
                        <Array as="points">
                            <mxPoint x="480" y="625"/>
                        </Array>
                    </mxGeometry>
                </mxCell>
                <mxCell id="76" style="edgeStyle=none;html=1;exitX=0.5;exitY=1;exitDx=0;exitDy=0;entryX=0;entryY=0.5;entryDx=0;entryDy=0;fontSize=10;fontColor=#FFFFFF;startArrow=none;startFill=0;endArrow=classic;endFill=1;" edge="1" parent="1" source="17" target="70">
                    <mxGeometry relative="1" as="geometry">
                        <Array as="points">
                            <mxPoint x="480" y="795"/>
                        </Array>
                    </mxGeometry>
                </mxCell>
                <mxCell id="89" style="edgeStyle=none;html=1;exitX=0.25;exitY=0;exitDx=0;exitDy=0;entryX=0.75;entryY=1;entryDx=0;entryDy=0;fontSize=10;fontColor=#FFFFFF;startArrow=none;startFill=0;endArrow=classic;endFill=1;fillColor=#1ba1e2;strokeColor=#006EAF;" edge="1" parent="1" source="17" target="14">
                    <mxGeometry relative="1" as="geometry">
                        <Array as="points">
                            <mxPoint x="445" y="340"/>
                            <mxPoint x="280" y="340"/>
                        </Array>
                    </mxGeometry>
                </mxCell>
                <mxCell id="17" value="token_authentication" style="rounded=1;whiteSpace=wrap;html=1;fillStyle=auto;strokeColor=none;strokeWidth=1;fillColor=#242424;" vertex="1" parent="1">
                    <mxGeometry x="410" y="380" width="140" height="30" as="geometry"/>
                </mxCell>
                <mxCell id="81" style="edgeStyle=none;html=1;exitX=1;exitY=0.5;exitDx=0;exitDy=0;entryX=0;entryY=0.5;entryDx=0;entryDy=0;fontSize=10;fontColor=#FFFFFF;startArrow=none;startFill=0;endArrow=none;endFill=0;" edge="1" parent="1" source="20" target="80">
                    <mxGeometry relative="1" as="geometry">
                        <Array as="points">
                            <mxPoint x="1140" y="395"/>
                            <mxPoint x="1140" y="490"/>
                        </Array>
                    </mxGeometry>
                </mxCell>
                <mxCell id="20" value="colon_error, 400" style="rounded=1;whiteSpace=wrap;html=1;fillStyle=auto;strokeColor=#B09500;strokeWidth=1;fillColor=#e3c800;fontColor=#000000;" vertex="1" parent="1">
                    <mxGeometry x="990" y="380" width="120" height="30" as="geometry"/>
                </mxCell>
                <mxCell id="82" style="edgeStyle=none;html=1;exitX=1;exitY=0.5;exitDx=0;exitDy=0;fontSize=10;fontColor=#FFFFFF;startArrow=none;startFill=0;endArrow=none;endFill=0;" edge="1" parent="1" source="21">
                    <mxGeometry relative="1" as="geometry">
                        <mxPoint x="1180" y="490" as="targetPoint"/>
                        <Array as="points">
                            <mxPoint x="1140" y="435"/>
                            <mxPoint x="1140" y="490"/>
                        </Array>
                    </mxGeometry>
                </mxCell>
                <mxCell id="21" value="data_error, 400" style="rounded=1;whiteSpace=wrap;html=1;fillStyle=auto;strokeColor=#B09500;strokeWidth=1;fillColor=#e3c800;fontColor=#000000;" vertex="1" parent="1">
                    <mxGeometry x="990" y="420" width="120" height="30" as="geometry"/>
                </mxCell>
                <mxCell id="86" style="edgeStyle=none;html=1;exitX=1;exitY=0.5;exitDx=0;exitDy=0;entryX=0;entryY=0.5;entryDx=0;entryDy=0;fontSize=10;fontColor=#FFFFFF;startArrow=none;startFill=0;endArrow=none;endFill=0;" edge="1" parent="1" source="22" target="80">
                    <mxGeometry relative="1" as="geometry">
                        <Array as="points">
                            <mxPoint x="1140" y="475"/>
                            <mxPoint x="1140" y="490"/>
                        </Array>
                    </mxGeometry>
                </mxCell>
                <mxCell id="22" value="invalid_token, 403" style="rounded=1;whiteSpace=wrap;html=1;fillStyle=auto;strokeColor=#B09500;strokeWidth=1;fillColor=#e3c800;fontColor=#000000;" vertex="1" parent="1">
                    <mxGeometry x="990" y="460" width="120" height="30" as="geometry"/>
                </mxCell>
                <mxCell id="84" style="edgeStyle=none;html=1;exitX=1;exitY=0.5;exitDx=0;exitDy=0;entryX=0;entryY=0.5;entryDx=0;entryDy=0;fontSize=10;fontColor=#FFFFFF;startArrow=none;startFill=0;endArrow=none;endFill=0;" edge="1" parent="1" source="23" target="80">
                    <mxGeometry relative="1" as="geometry">
                        <Array as="points">
                            <mxPoint x="1140" y="515"/>
                            <mxPoint x="1140" y="490"/>
                        </Array>
                    </mxGeometry>
                </mxCell>
                <mxCell id="23" value="expired_token, 403" style="rounded=1;whiteSpace=wrap;html=1;fillStyle=auto;strokeColor=#B09500;strokeWidth=1;fillColor=#e3c800;fontColor=#000000;" vertex="1" parent="1">
                    <mxGeometry x="990" y="500" width="120" height="30" as="geometry"/>
                </mxCell>
                <mxCell id="85" style="edgeStyle=none;html=1;exitX=1;exitY=0.5;exitDx=0;exitDy=0;entryX=0;entryY=0.5;entryDx=0;entryDy=0;fontSize=10;fontColor=#FFFFFF;startArrow=none;startFill=0;endArrow=none;endFill=0;" edge="1" parent="1" source="24" target="80">
                    <mxGeometry relative="1" as="geometry">
                        <Array as="points">
                            <mxPoint x="1140" y="555"/>
                            <mxPoint x="1140" y="490"/>
                            <mxPoint x="1150" y="490"/>
                        </Array>
                    </mxGeometry>
                </mxCell>
                <mxCell id="24" value="ip_error, 403" style="rounded=1;whiteSpace=wrap;html=1;fillStyle=auto;strokeColor=#B09500;strokeWidth=1;fillColor=#e3c800;fontColor=#000000;" vertex="1" parent="1">
                    <mxGeometry x="990" y="540" width="120" height="30" as="geometry"/>
                </mxCell>
                <mxCell id="87" style="edgeStyle=none;html=1;exitX=1;exitY=0.5;exitDx=0;exitDy=0;entryX=0;entryY=0.5;entryDx=0;entryDy=0;fontSize=10;fontColor=#FFFFFF;startArrow=none;startFill=0;endArrow=none;endFill=0;" edge="1" parent="1" source="30" target="80">
                    <mxGeometry relative="1" as="geometry">
                        <Array as="points">
                            <mxPoint x="1140" y="615"/>
                            <mxPoint x="1140" y="490"/>
                        </Array>
                    </mxGeometry>
                </mxCell>
                <mxCell id="30" value="valid_token, 200" style="rounded=1;whiteSpace=wrap;html=1;fillStyle=auto;strokeColor=#2D7600;strokeWidth=1;fillColor=#60a917;fontColor=#ffffff;" vertex="1" parent="1">
                    <mxGeometry x="990" y="600" width="120" height="30" as="geometry"/>
                </mxCell>
                <mxCell id="46" style="edgeStyle=none;html=1;exitX=0.5;exitY=1;exitDx=0;exitDy=0;entryX=0.5;entryY=0;entryDx=0;entryDy=0;fontColor=#2B2B2B;startArrow=none;startFill=0;endArrow=classic;endFill=1;" edge="1" parent="1" source="33" target="17">
                    <mxGeometry relative="1" as="geometry">
                        <Array as="points">
                            <mxPoint x="385" y="270"/>
                            <mxPoint x="480" y="270"/>
                        </Array>
                    </mxGeometry>
                </mxCell>
                <mxCell id="33" value="request.header.get( )" style="rounded=1;whiteSpace=wrap;html=1;fillStyle=auto;strokeWidth=1;fillColor=#f5f5f5;gradientColor=#b3b3b3;strokeColor=#666666;fontColor=#2B2B2B;" vertex="1" parent="1">
                    <mxGeometry x="320" y="230" width="130" height="20" as="geometry"/>
                </mxCell>
                <mxCell id="43" style="edgeStyle=none;html=1;exitX=0.25;exitY=0;exitDx=0;exitDy=0;fontColor=#2B2B2B;startArrow=classic;startFill=1;endArrow=none;endFill=0;dashed=1;" edge="1" parent="1" source="35" target="2">
                    <mxGeometry relative="1" as="geometry">
                        <Array as="points">
                            <mxPoint x="490" y="180"/>
                            <mxPoint x="170" y="180"/>
                        </Array>
                    </mxGeometry>
                </mxCell>
                <mxCell id="47" style="edgeStyle=none;html=1;exitX=0.5;exitY=1;exitDx=0;exitDy=0;entryX=0.5;entryY=0;entryDx=0;entryDy=0;fontColor=#2B2B2B;startArrow=none;startFill=0;endArrow=classic;endFill=1;" edge="1" parent="1" source="35" target="17">
                    <mxGeometry relative="1" as="geometry">
                        <Array as="points">
                            <mxPoint x="525" y="270"/>
                            <mxPoint x="480" y="270"/>
                        </Array>
                    </mxGeometry>
                </mxCell>
                <mxCell id="35" value="request.remote_addr" style="rounded=1;whiteSpace=wrap;html=1;fillStyle=auto;strokeWidth=1;fillColor=#f5f5f5;gradientColor=#b3b3b3;strokeColor=#666666;fontColor=#2B2B2B;" vertex="1" parent="1">
                    <mxGeometry x="460" y="230" width="130" height="20" as="geometry"/>
                </mxCell>
                <mxCell id="48" style="edgeStyle=none;html=1;exitX=0.5;exitY=1;exitDx=0;exitDy=0;entryX=0.5;entryY=0;entryDx=0;entryDy=0;fontColor=#2B2B2B;startArrow=none;startFill=0;endArrow=classic;endFill=1;" edge="1" parent="1" source="38" target="17">
                    <mxGeometry relative="1" as="geometry">
                        <Array as="points">
                            <mxPoint x="665" y="270"/>
                            <mxPoint x="480" y="270"/>
                        </Array>
                    </mxGeometry>
                </mxCell>
                <mxCell id="38" value="current_app.config( )" style="rounded=1;whiteSpace=wrap;html=1;fillStyle=auto;strokeWidth=1;fillColor=#f5f5f5;gradientColor=#b3b3b3;strokeColor=#666666;fontColor=#2B2B2B;" vertex="1" parent="1">
                    <mxGeometry x="600" y="230" width="130" height="20" as="geometry"/>
                </mxCell>
                <mxCell id="41" style="edgeStyle=none;html=1;exitX=0;exitY=0.5;exitDx=0;exitDy=0;dashed=1;fontColor=#2B2B2B;startArrow=none;startFill=0;endArrow=none;endFill=0;" edge="1" parent="1" source="40" target="2">
                    <mxGeometry relative="1" as="geometry"/>
                </mxCell>
                <mxCell id="42" style="edgeStyle=none;html=1;exitX=1;exitY=0.5;exitDx=0;exitDy=0;entryX=0.23;entryY=-0.022;entryDx=0;entryDy=0;fontColor=#2B2B2B;startArrow=none;startFill=0;endArrow=classic;endFill=1;entryPerimeter=0;" edge="1" parent="1" source="40" target="33">
                    <mxGeometry relative="1" as="geometry">
                        <Array as="points">
                            <mxPoint x="350" y="145"/>
                        </Array>
                    </mxGeometry>
                </mxCell>
                <mxCell id="40" value="&quot;Authorization&quot;" style="rounded=1;whiteSpace=wrap;html=1;fillStyle=auto;strokeColor=#006EAF;strokeWidth=1;fontColor=#ffffff;fillColor=#1ba1e2;" vertex="1" parent="1">
                    <mxGeometry x="230" y="130" width="100" height="30" as="geometry"/>
                </mxCell>
                <mxCell id="45" style="edgeStyle=none;html=1;exitX=0.359;exitY=1.003;exitDx=0;exitDy=0;entryX=0.764;entryY=-0.015;entryDx=0;entryDy=0;fontColor=#2B2B2B;startArrow=none;startFill=0;endArrow=classic;endFill=1;entryPerimeter=0;exitPerimeter=0;" edge="1" parent="1" source="44" target="38">
                    <mxGeometry relative="1" as="geometry">
                        <Array as="points">
                            <mxPoint x="700" y="150"/>
                        </Array>
                    </mxGeometry>
                </mxCell>
                <mxCell id="44" value="SECRET_KEY" style="text;html=1;fillColor=none;align=center;verticalAlign=middle;whiteSpace=wrap;rounded=0;fillStyle=auto;strokeWidth=1;strokeColor=default;" vertex="1" parent="1">
                    <mxGeometry x="660" y="120" width="110" height="30" as="geometry"/>
                </mxCell>
                <mxCell id="53" style="edgeStyle=none;html=1;exitX=0.5;exitY=1;exitDx=0;exitDy=0;entryX=0;entryY=0.5;entryDx=0;entryDy=0;fontSize=10;fontColor=#FFFFFF;startArrow=none;startFill=0;endArrow=none;endFill=0;" edge="1" parent="1" source="50" target="52">
                    <mxGeometry relative="1" as="geometry">
                        <Array as="points">
                            <mxPoint x="565" y="480"/>
                        </Array>
                    </mxGeometry>
                </mxCell>
                <mxCell id="50" value="Try" style="shape=process;whiteSpace=wrap;html=1;backgroundOutline=1;fillStyle=auto;strokeColor=#2B2B2B;strokeWidth=1;fontColor=#FFFFFF;fillColor=#242424;" vertex="1" parent="1">
                    <mxGeometry x="540" y="420" width="50" height="30" as="geometry"/>
                </mxCell>
                <mxCell id="56" style="edgeStyle=none;html=1;exitX=0.25;exitY=1;exitDx=0;exitDy=0;entryX=0;entryY=0.5;entryDx=0;entryDy=0;fontSize=10;fontColor=#FFFFFF;startArrow=none;startFill=0;endArrow=none;endFill=0;" edge="1" parent="1" source="52" target="54">
                    <mxGeometry relative="1" as="geometry">
                        <Array as="points">
                            <mxPoint x="635" y="520"/>
                        </Array>
                    </mxGeometry>
                </mxCell>
                <mxCell id="57" style="edgeStyle=none;html=1;exitX=0.25;exitY=1;exitDx=0;exitDy=0;entryX=0;entryY=0.5;entryDx=0;entryDy=0;fontSize=10;fontColor=#FFFFFF;startArrow=none;startFill=0;endArrow=none;endFill=0;" edge="1" parent="1" source="52" target="55">
                    <mxGeometry relative="1" as="geometry">
                        <Array as="points">
                            <mxPoint x="635" y="550"/>
                        </Array>
                    </mxGeometry>
                </mxCell>
                <mxCell id="52" value="Separate the string (when there are spaces) to get only the token string" style="rounded=0;whiteSpace=wrap;html=1;fillStyle=auto;strokeColor=#3700CC;strokeWidth=1;fillColor=#6a00ff;align=left;fontSize=10;spacingLeft=5;fontColor=#ffffff;" vertex="1" parent="1">
                    <mxGeometry x="590" y="460" width="180" height="40" as="geometry"/>
                </mxCell>
                <mxCell id="58" style="edgeStyle=none;html=1;exitX=1;exitY=0.5;exitDx=0;exitDy=0;entryX=0;entryY=0.5;entryDx=0;entryDy=0;fontSize=10;fontColor=#FFFFFF;startArrow=none;startFill=0;endArrow=classic;endFill=1;" edge="1" parent="1" source="54" target="20">
                    <mxGeometry relative="1" as="geometry">
                        <Array as="points">
                            <mxPoint x="830" y="520"/>
                            <mxPoint x="830" y="395"/>
                        </Array>
                    </mxGeometry>
                </mxCell>
                <mxCell id="54" value="IndexError" style="rounded=1;whiteSpace=wrap;html=1;fillStyle=auto;strokeColor=#B20000;strokeWidth=1;fontSize=10;fontColor=#ffffff;fillColor=#e51400;" vertex="1" parent="1">
                    <mxGeometry x="680" y="510" width="120" height="20" as="geometry"/>
                </mxCell>
                <mxCell id="59" style="edgeStyle=none;html=1;exitX=1;exitY=0.5;exitDx=0;exitDy=0;entryX=0;entryY=0.5;entryDx=0;entryDy=0;fontSize=10;fontColor=#FFFFFF;startArrow=none;startFill=0;endArrow=classic;endFill=1;" edge="1" parent="1" source="55" target="21">
                    <mxGeometry relative="1" as="geometry">
                        <Array as="points">
                            <mxPoint x="840" y="550"/>
                            <mxPoint x="840" y="435"/>
                        </Array>
                    </mxGeometry>
                </mxCell>
                <mxCell id="55" value="AttributeError" style="rounded=1;whiteSpace=wrap;html=1;fillStyle=auto;strokeColor=#B20000;strokeWidth=1;fontSize=10;fontColor=#ffffff;fillColor=#e51400;" vertex="1" parent="1">
                    <mxGeometry x="680" y="540" width="120" height="20" as="geometry"/>
                </mxCell>
                <mxCell id="65" style="edgeStyle=none;html=1;exitX=0.5;exitY=1;exitDx=0;exitDy=0;entryX=0;entryY=0.5;entryDx=0;entryDy=0;fontSize=10;fontColor=#FFFFFF;startArrow=none;startFill=0;endArrow=none;endFill=0;" edge="1" parent="1" source="60" target="62">
                    <mxGeometry relative="1" as="geometry">
                        <Array as="points">
                            <mxPoint x="565" y="670"/>
                        </Array>
                    </mxGeometry>
                </mxCell>
                <mxCell id="60" value="Try" style="shape=process;whiteSpace=wrap;html=1;backgroundOutline=1;fillStyle=auto;strokeColor=#2B2B2B;strokeWidth=1;fontColor=#FFFFFF;fillColor=#242424;" vertex="1" parent="1">
                    <mxGeometry x="540" y="610" width="50" height="30" as="geometry"/>
                </mxCell>
                <mxCell id="66" style="edgeStyle=none;html=1;exitX=0.25;exitY=1;exitDx=0;exitDy=0;entryX=0;entryY=0.5;entryDx=0;entryDy=0;fontSize=10;fontColor=#FFFFFF;startArrow=none;startFill=0;endArrow=none;endFill=0;" edge="1" parent="1" source="62" target="63">
                    <mxGeometry relative="1" as="geometry">
                        <Array as="points">
                            <mxPoint x="635" y="710"/>
                        </Array>
                    </mxGeometry>
                </mxCell>
                <mxCell id="67" style="edgeStyle=none;html=1;exitX=0.25;exitY=1;exitDx=0;exitDy=0;entryX=0;entryY=0.5;entryDx=0;entryDy=0;fontSize=10;fontColor=#FFFFFF;startArrow=none;startFill=0;endArrow=none;endFill=0;" edge="1" parent="1" source="62" target="64">
                    <mxGeometry relative="1" as="geometry">
                        <Array as="points">
                            <mxPoint x="635" y="740"/>
                        </Array>
                    </mxGeometry>
                </mxCell>
                <mxCell id="62" value="Decode with JWT" style="rounded=0;whiteSpace=wrap;html=1;fillStyle=auto;strokeColor=#3700CC;strokeWidth=1;fillColor=#6a00ff;align=left;fontSize=10;spacingLeft=5;fontColor=#ffffff;" vertex="1" parent="1">
                    <mxGeometry x="590" y="650" width="180" height="40" as="geometry"/>
                </mxCell>
                <mxCell id="68" style="edgeStyle=none;html=1;exitX=1;exitY=0.5;exitDx=0;exitDy=0;entryX=0;entryY=0.5;entryDx=0;entryDy=0;fontSize=10;fontColor=#FFFFFF;startArrow=none;startFill=0;endArrow=classic;endFill=1;" edge="1" parent="1" source="63" target="22">
                    <mxGeometry relative="1" as="geometry">
                        <Array as="points">
                            <mxPoint x="920" y="710"/>
                            <mxPoint x="920" y="475"/>
                        </Array>
                    </mxGeometry>
                </mxCell>
                <mxCell id="63" value="jwt.exceptions.DecodeError" style="rounded=1;whiteSpace=wrap;html=1;fillStyle=auto;strokeColor=#B20000;strokeWidth=1;fontSize=10;fontColor=#ffffff;fillColor=#e51400;" vertex="1" parent="1">
                    <mxGeometry x="680" y="700" width="180" height="20" as="geometry"/>
                </mxCell>
                <mxCell id="69" style="edgeStyle=none;html=1;exitX=1;exitY=0.5;exitDx=0;exitDy=0;entryX=0;entryY=0.5;entryDx=0;entryDy=0;fontSize=10;fontColor=#FFFFFF;startArrow=none;startFill=0;endArrow=classic;endFill=1;" edge="1" parent="1" source="64" target="23">
                    <mxGeometry relative="1" as="geometry">
                        <Array as="points">
                            <mxPoint x="920" y="740"/>
                            <mxPoint x="920" y="515"/>
                        </Array>
                    </mxGeometry>
                </mxCell>
                <mxCell id="64" value="jwt.exceptions.ExpiredSignatureError" style="rounded=1;whiteSpace=wrap;html=1;fillStyle=auto;strokeColor=#B20000;strokeWidth=1;fontSize=10;fontColor=#ffffff;fillColor=#e51400;" vertex="1" parent="1">
                    <mxGeometry x="680" y="730" width="180" height="20" as="geometry"/>
                </mxCell>
                <mxCell id="72" style="edgeStyle=none;html=1;exitX=0.5;exitY=1;exitDx=0;exitDy=0;entryX=0;entryY=0.5;entryDx=0;entryDy=0;fontSize=10;fontColor=#FFFFFF;startArrow=none;startFill=0;endArrow=none;endFill=0;" edge="1" parent="1" source="70" target="71">
                    <mxGeometry relative="1" as="geometry">
                        <Array as="points">
                            <mxPoint x="565" y="840"/>
                        </Array>
                    </mxGeometry>
                </mxCell>
                <mxCell id="70" value="if" style="shape=process;whiteSpace=wrap;html=1;backgroundOutline=1;fillStyle=auto;strokeColor=#2B2B2B;strokeWidth=1;fontColor=#FFFFFF;fillColor=#242424;" vertex="1" parent="1">
                    <mxGeometry x="540" y="780" width="50" height="30" as="geometry"/>
                </mxCell>
                <mxCell id="74" style="edgeStyle=none;html=1;exitX=0.25;exitY=1;exitDx=0;exitDy=0;entryX=0;entryY=0.5;entryDx=0;entryDy=0;fontSize=10;fontColor=#FFFFFF;startArrow=none;startFill=0;endArrow=none;endFill=0;" edge="1" parent="1" source="71" target="73">
                    <mxGeometry relative="1" as="geometry">
                        <Array as="points">
                            <mxPoint x="635" y="880"/>
                        </Array>
                    </mxGeometry>
                </mxCell>
                <mxCell id="78" style="edgeStyle=none;html=1;exitX=0.25;exitY=1;exitDx=0;exitDy=0;entryX=0;entryY=0.5;entryDx=0;entryDy=0;fontSize=10;fontColor=#FFFFFF;startArrow=none;startFill=0;endArrow=none;endFill=0;" edge="1" parent="1" source="71" target="77">
                    <mxGeometry relative="1" as="geometry">
                        <Array as="points">
                            <mxPoint x="635" y="907"/>
                        </Array>
                    </mxGeometry>
                </mxCell>
                <mxCell id="71" value="Verifies the IP code on the token with the IP that made the request" style="rounded=0;whiteSpace=wrap;html=1;fillStyle=auto;strokeColor=#3700CC;strokeWidth=1;fillColor=#6a00ff;align=left;fontSize=10;spacingLeft=5;fontColor=#ffffff;" vertex="1" parent="1">
                    <mxGeometry x="590" y="820" width="180" height="40" as="geometry"/>
                </mxCell>
                <mxCell id="75" style="edgeStyle=none;html=1;exitX=1;exitY=0.5;exitDx=0;exitDy=0;entryX=0;entryY=0.5;entryDx=0;entryDy=0;fontSize=10;fontColor=#FFFFFF;startArrow=none;startFill=0;endArrow=classic;endFill=1;" edge="1" parent="1" source="73" target="24">
                    <mxGeometry relative="1" as="geometry">
                        <Array as="points">
                            <mxPoint x="960" y="880"/>
                            <mxPoint x="960" y="555"/>
                        </Array>
                    </mxGeometry>
                </mxCell>
                <mxCell id="73" value="False" style="rounded=1;whiteSpace=wrap;html=1;fillStyle=auto;strokeColor=#B20000;strokeWidth=1;fontSize=10;fontColor=#ffffff;fillColor=#e51400;" vertex="1" parent="1">
                    <mxGeometry x="730" y="870" width="40" height="20" as="geometry"/>
                </mxCell>
                <mxCell id="79" style="edgeStyle=none;html=1;exitX=1;exitY=0.5;exitDx=0;exitDy=0;entryX=0;entryY=0.5;entryDx=0;entryDy=0;fontSize=10;fontColor=#FFFFFF;startArrow=none;startFill=0;endArrow=none;endFill=0;" edge="1" parent="1" source="77" target="30">
                    <mxGeometry relative="1" as="geometry">
                        <Array as="points">
                            <mxPoint x="970" y="910"/>
                            <mxPoint x="970" y="615"/>
                        </Array>
                    </mxGeometry>
                </mxCell>
                <mxCell id="77" value="True" style="rounded=1;whiteSpace=wrap;html=1;fillStyle=auto;strokeColor=#2D7600;strokeWidth=1;fontSize=10;fontColor=#ffffff;fillColor=#60a917;" vertex="1" parent="1">
                    <mxGeometry x="730" y="897" width="40" height="20" as="geometry"/>
                </mxCell>
                <mxCell id="88" style="edgeStyle=none;html=1;exitX=1;exitY=0.5;exitDx=0;exitDy=0;entryX=1;entryY=0.5;entryDx=0;entryDy=0;fontSize=10;fontColor=#FFFFFF;startArrow=none;startFill=0;endArrow=classic;endFill=1;fillColor=#1ba1e2;strokeColor=#006EAF;" edge="1" parent="1" source="80" target="17">
                    <mxGeometry relative="1" as="geometry">
                        <Array as="points">
                            <mxPoint x="1290" y="490"/>
                            <mxPoint x="1290" y="350"/>
                            <mxPoint x="680" y="350"/>
                            <mxPoint x="680" y="395"/>
                        </Array>
                    </mxGeometry>
                </mxCell>
                <mxCell id="80" value="Return to" style="ellipse;whiteSpace=wrap;html=1;aspect=fixed;fillStyle=auto;strokeColor=#2B2B2B;strokeWidth=1;fontSize=10;fontColor=#FFFFFF;fillColor=#242424;" vertex="1" parent="1">
                    <mxGeometry x="1180" y="450" width="80" height="80" as="geometry"/>
                </mxCell>
                <mxCell id="94" style="edgeStyle=none;html=1;exitX=0.5;exitY=1;exitDx=0;exitDy=0;entryX=0;entryY=0.5;entryDx=0;entryDy=0;fontSize=10;fontColor=#FFFFFF;startArrow=none;startFill=0;endArrow=none;endFill=0;fillColor=#1ba1e2;strokeColor=#006EAF;" edge="1" parent="1" source="91" target="93">
                    <mxGeometry relative="1" as="geometry">
                        <Array as="points">
                            <mxPoint x="265" y="490"/>
                        </Array>
                    </mxGeometry>
                </mxCell>
                <mxCell id="91" value="if" style="shape=process;whiteSpace=wrap;html=1;backgroundOutline=1;fillStyle=auto;strokeColor=#2B2B2B;strokeWidth=1;fontColor=#FFFFFF;fillColor=#242424;" vertex="1" parent="1">
                    <mxGeometry x="240" y="430" width="50" height="30" as="geometry"/>
                </mxCell>
                <mxCell id="97" style="edgeStyle=none;html=1;exitX=0.75;exitY=1;exitDx=0;exitDy=0;entryX=1;entryY=0.5;entryDx=0;entryDy=0;fontSize=10;fontColor=#FFFFFF;startArrow=none;startFill=0;endArrow=classic;endFill=1;fillColor=#1ba1e2;strokeColor=#006EAF;" edge="1" parent="1" source="93" target="95">
                    <mxGeometry relative="1" as="geometry">
                        <Array as="points">
                            <mxPoint x="415" y="540"/>
                        </Array>
                    </mxGeometry>
                </mxCell>
                <mxCell id="98" style="edgeStyle=none;html=1;exitX=0.75;exitY=1;exitDx=0;exitDy=0;entryX=1;entryY=0.5;entryDx=0;entryDy=0;fontSize=10;fontColor=#FFFFFF;startArrow=none;startFill=0;endArrow=classic;endFill=1;fillColor=#1ba1e2;strokeColor=#006EAF;" edge="1" parent="1" source="93" target="96">
                    <mxGeometry relative="1" as="geometry">
                        <Array as="points">
                            <mxPoint x="415" y="570"/>
                        </Array>
                    </mxGeometry>
                </mxCell>
                <mxCell id="93" value="token_authentication return different than 200" style="rounded=0;whiteSpace=wrap;html=1;fillStyle=auto;strokeColor=#3700CC;strokeWidth=1;fillColor=#6a00ff;align=left;fontSize=10;spacingLeft=5;fontColor=#ffffff;" vertex="1" parent="1">
                    <mxGeometry x="280" y="470" width="180" height="40" as="geometry"/>
                </mxCell>
                <mxCell id="99" style="edgeStyle=none;html=1;exitX=0;exitY=0.5;exitDx=0;exitDy=0;fontSize=10;fontColor=#FFFFFF;startArrow=none;startFill=0;endArrow=classic;endFill=1;fillColor=#1ba1e2;strokeColor=#006EAF;" edge="1" parent="1" source="95" target="2">
                    <mxGeometry relative="1" as="geometry">
                        <Array as="points">
                            <mxPoint x="110" y="540"/>
                            <mxPoint x="110" y="260"/>
                        </Array>
                    </mxGeometry>
                </mxCell>
                <mxCell id="95" value="Return token_authentication" style="rounded=1;whiteSpace=wrap;html=1;fillStyle=auto;strokeColor=#B20000;strokeWidth=1;fontSize=10;fontColor=#ffffff;fillColor=#e51400;" vertex="1" parent="1">
                    <mxGeometry x="240" y="530" width="140" height="20" as="geometry"/>
                </mxCell>
                <mxCell id="100" style="edgeStyle=none;html=1;exitX=0;exitY=0.5;exitDx=0;exitDy=0;fontSize=10;fontColor=#FFFFFF;startArrow=none;startFill=0;endArrow=classic;endFill=1;fillColor=#1ba1e2;strokeColor=#006EAF;" edge="1" parent="1" source="96" target="2">
                    <mxGeometry relative="1" as="geometry">
                        <Array as="points">
                            <mxPoint x="110" y="570"/>
                            <mxPoint x="110" y="270"/>
                        </Array>
                    </mxGeometry>
                </mxCell>
                <mxCell id="96" value="Exec. route" style="rounded=1;whiteSpace=wrap;html=1;fillStyle=auto;strokeColor=#2D7600;strokeWidth=1;fontSize=10;fontColor=#ffffff;fillColor=#60a917;" vertex="1" parent="1">
                    <mxGeometry x="240" y="560" width="140" height="20" as="geometry"/>
                </mxCell>
            </root>
        </mxGraphModel>
    </diagram>
</mxfile>